<svg width="512" height="512" viewBox="0 0 512 512" fill="none" xmlns="http://www.w3.org/2000/svg">
<rect width="512" height="512" fill="url(#paint0_linear_1_9)"/>
<path d="M160.125 84C144.81 84 132.042 96.768 132.042 112.083V406.958C132.042 414.713 138.329 420.999 146.083 421H314.583C322.338 420.999 328.624 414.713 328.625 406.958V343.771C328.625 339.893 331.768 336.75 335.646 336.75H342.667C350.588 336.75 356.708 342.87 356.708 350.792V364.833C356.708 387.932 375.735 406.958 398.833 406.958C421.932 406.958 440.958 387.932 440.958 364.833V182.292C440.958 169.045 434.717 156.534 424.119 148.586L379.169 114.881C372.309 109.737 363.54 112.225 359.506 117.705C354.906 123.954 356.118 132.721 362.33 137.369L379.169 149.985C382.711 152.638 384.794 156.804 384.792 161.229V196.333C384.792 209.285 393.878 220.394 405.936 223.539C409.68 224.515 412.875 227.56 412.875 231.438V364.833C412.875 372.755 406.755 378.875 398.833 378.875C390.912 378.875 384.792 372.755 384.792 364.833V350.792C384.792 327.693 365.765 308.667 342.667 308.667H335.646C331.768 308.667 328.625 305.523 328.625 301.646V112.083C328.625 96.768 315.857 84 300.542 84L160.125 84ZM167.146 112.083H293.521C297.41 112.083 300.542 115.215 300.542 119.104V217.396C300.542 221.285 297.41 224.417 293.521 224.417H167.146C163.256 224.417 160.125 221.285 160.125 217.396V119.104C160.125 115.215 163.256 112.083 167.146 112.083Z" fill="white"/>
<defs>
<linearGradient id="paint0_linear_1_9" x1="256" y1="0" x2="256" y2="512" gradientUnits="userSpaceOnUse">
<stop stop-color="#FE8902"/>
<stop offset="1" stop-color="#EE4302"/>
</linearGradient>
</defs>
</svg>
